<svg version="1.1" id="Layer_1" xmlns="http://www.w3.org/2000/svg" xmlns:xlink="http://www.w3.org/1999/xlink" x="0px" y="0px"
	 width="100%" viewBox="0 0 140 140" enable-background="new 0 0 140 140" xml:space="preserve">
<path fill="#5C8430" opacity="1.000000" stroke="none" 
	d="
M63.000000,141.000000 
	C49.979103,141.000000 36.958210,141.000000 23.468529,140.563019 
	C23.663252,135.473511 21.809971,133.429489 16.991858,133.948898 
	C14.400154,134.228256 11.751292,133.977402 9.092958,133.504730 
	C9.081190,128.707169 9.104686,124.370689 9.582136,120.024826 
	C13.009627,120.005104 15.998474,120.166946 18.949610,119.904594 
	C20.234423,119.790390 22.072546,119.134735 22.580696,118.161690 
	C25.587286,112.404396 22.334736,107.018616 16.066296,106.999405 
	C13.753573,106.992325 11.440875,106.977234 9.092779,106.500504 
	C9.037991,92.691536 9.018589,79.347862 9.002381,66.013504 
	C9.005574,66.022812 9.026111,66.023193 9.488173,66.016724 
	C14.289990,66.015930 18.629744,66.021599 22.976677,66.490776 
	C22.990248,69.603081 23.170971,72.265717 22.962049,74.897423 
	C22.650864,78.817322 24.298912,80.167641 28.154362,80.057816 
	C35.432617,79.850479 42.721115,80.002609 50.002350,80.002342 
	C49.999340,79.999336 49.992672,79.992668 49.995003,80.462021 
	C50.024872,89.591606 50.052418,98.251831 50.058098,107.383728 
	C50.024456,110.005127 50.184917,112.172699 49.964558,114.300835 
	C49.524178,118.553902 51.090797,120.468277 55.543110,120.051056 
	C58.493858,119.774551 61.492970,120.058716 64.468079,119.989937 
	C78.734436,119.660149 76.970879,122.669861 76.942215,106.449387 
	C76.978706,97.322037 76.993019,88.657356 77.003998,79.996002 
	C77.000664,79.999336 76.994652,80.005348 77.463745,80.003922 
	C85.048904,80.000114 92.166779,79.902267 99.280220,80.037506 
	C102.606331,80.100746 104.215942,78.974998 104.030304,75.461288 
	C103.864677,72.326393 104.015884,69.174751 104.488663,66.023331 
	C108.966705,66.010880 112.983353,66.005592 117.000000,66.468941 
	C116.988594,75.582329 116.977188,84.227089 116.504730,92.907089 
	C113.553833,92.962891 111.052383,93.144058 108.576942,92.965218 
	C105.121712,92.715584 103.737610,94.102989 103.962875,97.568665 
	C104.167046,100.710030 104.021049,103.874146 103.561417,107.019630 
	C100.607994,107.007561 98.100624,107.213005 95.642090,106.954323 
	C91.373970,106.505249 89.337410,107.994667 89.977112,112.480263 
	C90.139282,113.617409 90.085472,114.802719 89.994751,115.955185 
	C89.758003,118.962753 91.124580,120.147057 94.089355,120.021225 
	C97.397461,119.880829 100.715637,119.977997 104.021378,120.438011 
	C104.030701,125.264160 104.048088,129.624054 103.594498,133.988281 
	C101.142990,133.995102 99.162437,133.996841 97.181892,134.000214 
	C90.056282,134.012329 90.056282,134.012527 90.000000,141.000000 
	C85.975456,141.000000 81.950912,141.000000 77.463058,140.562988 
	C76.611229,138.280487 76.472618,134.951874 75.792473,134.837280 
	C72.169487,134.226852 68.320763,133.955338 64.759003,134.645065 
	C63.798485,134.831070 63.566437,138.778915 63.000000,141.000000 
z"/>
<path fill="#5C8430" opacity="1.000000" stroke="none" 
	d="
M23.000000,1.000000 
	C27.025183,1.000000 31.050367,1.000000 35.537773,1.459320 
	C36.000664,11.985763 36.000664,11.985764 42.711109,11.999769 
	C49.990677,12.014962 49.990856,12.014962 49.999779,4.491647 
	C50.001156,3.327766 49.999992,2.163882 50.000000,1.000000 
	C54.025185,1.000000 58.050365,1.000000 62.537773,1.459320 
	C63.059719,12.926493 62.039200,12.128878 72.090431,11.953548 
	C75.701485,11.890558 77.124611,13.184428 77.045593,16.853180 
	C76.832275,26.757454 76.079765,25.970465 86.532806,25.999443 
	C87.689301,26.002649 88.845818,25.999012 90.004295,25.979275 
	C90.006271,25.960001 90.044464,25.953211 90.031967,26.419065 
	C90.018173,30.868040 90.016876,34.851158 89.553955,38.904694 
	C85.165726,38.975113 81.239113,38.975113 77.045151,38.975113 
	C77.045151,48.364185 77.045151,57.135994 77.034866,66.378151 
	C77.014603,71.234116 77.004631,75.619728 76.994652,80.005348 
	C76.994652,80.005348 77.000664,79.999336 76.534576,79.998367 
	C67.376556,79.995819 58.684612,79.994240 49.992672,79.992668 
	C49.992672,79.992668 49.999340,79.999336 50.000896,79.536484 
	C49.986568,74.685036 49.970684,70.296448 49.974079,65.444885 
	C49.982086,56.356773 49.970814,47.731632 49.968658,38.635727 
	C49.984276,35.845257 49.842949,33.513515 50.030624,31.208563 
	C50.341248,27.393524 48.885048,25.663568 44.921806,25.960890 
	C41.955448,26.183428 38.960018,26.018520 35.515575,26.018318 
	C21.214512,26.232157 23.135777,23.884363 23.030790,38.127563 
	C23.028347,38.458870 23.045961,38.790321 23.045485,39.091202 
	C23.036747,39.060696 23.097584,39.079227 22.627129,39.061203 
	C17.771128,39.028683 13.385583,39.014191 9.000027,38.531059 
	C9.023787,29.399773 9.047559,20.737120 9.528664,12.052238 
	C10.643460,12.020873 11.300918,12.011216 11.958389,12.002681 
	C24.488480,11.840016 22.862188,13.598670 23.000000,1.000000 
z"/>
<path fill="#436220" opacity="1.000000" stroke="none" 
	d="
M104.000000,1.000000 
	C108.024925,1.000000 112.049843,1.000000 116.537384,1.460594 
	C117.000000,5.157570 117.000000,8.393953 117.000000,12.193027 
	C122.087990,12.193027 126.315933,12.193027 131.099731,12.193027 
	C131.099731,16.996527 131.099731,21.230556 131.099731,26.000000 
	C134.774261,26.000000 137.887131,26.000000 141.000000,26.000000 
	C141.000000,30.024925 141.000000,34.049850 140.531372,38.537388 
	C132.366287,38.997169 124.669838,38.994335 116.988449,38.996101 
	C117.003517,39.000698 117.011093,39.029903 117.007843,38.562614 
	C116.987152,26.024183 116.987152,26.024220 104.963020,25.995293 
	C104.632050,25.994497 104.301071,25.991091 103.984703,25.992691 
	C103.999306,25.996479 104.008484,26.026608 104.006485,25.556293 
	C104.002998,17.057322 104.001503,9.028661 104.000000,1.000000 
z"/>
<path fill="#214919" opacity="1.000000" stroke="none" 
	d="
M104.029442,107.028236 
	C104.021049,103.874146 104.167046,100.710030 103.962875,97.568665 
	C103.737610,94.102989 105.121712,92.715584 108.576942,92.965218 
	C111.052383,93.144058 113.553833,92.962891 116.972122,92.945084 
	C120.713013,92.963928 123.533463,92.852867 126.335869,93.028984 
	C129.687531,93.239609 131.208435,92.012321 131.040375,88.489601 
	C130.843506,84.362785 130.962982,80.218834 131.006653,76.082962 
	C131.127823,64.609398 129.619247,66.141434 141.000000,66.000000 
	C141.000000,79.354225 141.000000,92.708458 140.544769,106.531342 
	C137.048630,107.043121 134.007751,107.086235 130.502518,107.089111 
	C121.347977,107.021767 112.657768,106.994659 103.982964,106.982758 
	C103.998360,106.997948 104.029442,107.028236 104.029442,107.028236 
z"/>
<path fill="#54742E" opacity="1.000000" stroke="none" 
	d="
M141.000000,65.536819 
	C129.619247,66.141434 131.127823,64.609398 131.006653,76.082962 
	C130.962982,80.218834 130.843506,84.362785 131.040375,88.489601 
	C131.208435,92.012321 129.687531,93.239609 126.335869,93.028984 
	C123.533463,92.852867 120.713013,92.963928 117.433167,92.909828 
	C116.977188,84.227089 116.988594,75.582329 117.000000,66.005531 
	C117.003540,61.033642 117.007080,56.993793 117.478447,52.965885 
	C125.630852,52.985214 133.315430,52.992607 141.000000,53.000000 
	C141.000000,57.024544 141.000000,61.049088 141.000000,65.536819 
z"/>
<path fill="#214919" opacity="1.000000" stroke="none" 
	d="
M9.128182,120.034203 
	C9.104686,124.370689 9.081190,128.707169 9.055244,133.944275 
	C9.035198,136.896606 9.017599,138.948303 9.000000,141.000000 
	C6.347469,141.000000 3.694938,141.000000 1.000000,141.000000 
	C1.000000,116.312454 1.000000,91.624886 1.444139,66.468658 
	C4.258582,66.001389 6.628884,66.002785 8.999187,66.004181 
	C9.018589,79.347862 9.037991,92.691536 9.054823,106.965897 
	C9.077563,111.942459 9.102873,115.988335 9.128182,120.034203 
z"/>
<path fill="#214919" opacity="1.000000" stroke="none" 
	d="
M104.065468,133.983948 
	C104.048088,129.624054 104.030701,125.264160 104.005829,120.453156 
	C103.998344,120.002052 103.967560,120.032440 104.438644,120.022987 
	C113.595421,119.965897 122.281128,119.918266 131.421936,119.903625 
	C134.918045,119.957741 137.959015,119.978867 141.000000,120.000000 
	C141.000000,126.891411 141.000000,133.782822 141.000000,141.000000 
	C137.998886,141.000000 134.986008,141.000000 131.486481,140.561203 
	C131.722794,135.389526 129.838150,133.645355 124.964340,133.904892 
	C118.016350,134.274902 111.033455,133.989441 104.065468,133.983948 
z"/>
<path fill="#54742E" opacity="1.000000" stroke="none" 
	d="
M90.002319,25.998550 
	C88.845818,25.999012 87.689301,26.002649 86.532806,25.999443 
	C76.079765,25.970465 76.832275,26.757454 77.045593,16.853180 
	C77.124611,13.184428 75.701485,11.890558 72.090431,11.953548 
	C62.039200,12.128878 63.059719,12.926493 63.000000,1.459320 
	C71.687561,1.000000 80.375130,1.000000 89.531342,1.468649 
	C90.000778,9.957715 90.001549,17.978132 90.002319,25.998550 
z"/>
<path fill="#54742E" opacity="1.000000" stroke="none" 
	d="
M9.002380,66.013496 
	C6.628884,66.002785 4.258582,66.001389 1.444139,66.000000 
	C1.000000,48.312439 1.000000,30.624876 1.442106,12.468657 
	C4.229409,11.973284 6.574606,11.946568 8.957802,11.958391 
	C8.995801,11.996930 9.071330,12.074469 9.071330,12.074469 
	C9.047559,20.737120 9.023787,29.399773 9.000015,38.999748 
	C9.008714,48.632450 9.017412,57.327820 9.026112,66.023193 
	C9.026111,66.023193 9.005574,66.022812 9.002380,66.013496 
z"/>
<path fill="#969696" opacity="1.000000" stroke="none" 
	d="
M141.000000,25.531321 
	C137.887131,26.000000 134.774261,26.000000 131.099731,26.000000 
	C131.099731,21.230556 131.099731,16.996527 131.099731,12.193027 
	C126.315933,12.193027 122.087990,12.193027 117.000000,12.193027 
	C117.000000,8.393953 117.000000,5.157570 117.000000,1.460594 
	C124.927856,1.000000 132.855713,1.000000 141.000000,1.000000 
	C141.000000,9.019587 141.000000,17.041115 141.000000,25.531321 
z"/>
<path fill="#214919" opacity="1.000000" stroke="none" 
	d="
M90.004295,25.979275 
	C90.001549,17.978132 90.000778,9.957715 90.000000,1.468649 
	C94.356903,1.000000 98.713799,1.000000 103.535355,1.000000 
	C104.001503,9.028661 104.002998,17.057322 103.541046,25.548363 
	C98.733223,25.991566 94.388840,25.972389 90.044464,25.953211 
	C90.044464,25.953211 90.006271,25.960001 90.004295,25.979275 
z"/>
<path fill="#214919" opacity="1.000000" stroke="none" 
	d="
M141.000000,52.535347 
	C133.315430,52.992607 125.630852,52.985214 117.475235,52.505871 
	C116.993935,47.686447 116.983658,43.338978 116.973389,38.991505 
	C124.669838,38.994335 132.366287,38.997169 140.531372,39.000000 
	C141.000000,43.356899 141.000000,47.713799 141.000000,52.535347 
z"/>
<path fill="#54742E" opacity="1.000000" stroke="none" 
	d="
M103.594498,133.988281 
	C111.033455,133.989441 118.016350,134.274902 124.964340,133.904892 
	C129.838150,133.645355 131.722794,135.389526 130.999908,140.561203 
	C117.645775,141.000000 104.291542,141.000000 90.468658,141.000000 
	C90.056282,134.012527 90.056282,134.012329 97.181892,134.000214 
	C99.162437,133.996841 101.142990,133.995102 103.594498,133.988281 
z"/>
<path fill="#54742E" opacity="1.000000" stroke="none" 
	d="
M49.535347,1.000000 
	C49.999992,2.163882 50.001156,3.327766 49.999779,4.491647 
	C49.990856,12.014962 49.990677,12.014962 42.711109,11.999769 
	C36.000664,11.985764 36.000664,11.985763 36.000000,1.459320 
	C40.356899,1.000000 44.713799,1.000000 49.535347,1.000000 
z"/>
<path fill="#54742E" opacity="1.000000" stroke="none" 
	d="
M22.535349,1.000000 
	C22.862188,13.598670 24.488480,11.840016 11.958389,12.002681 
	C11.300918,12.011216 10.643460,12.020873 9.528664,12.052238 
	C9.071330,12.074469 8.995801,11.996930 8.982979,11.509121 
	C8.980105,7.680874 8.990053,4.340437 9.000000,1.000000 
	C13.356899,1.000000 17.713799,1.000000 22.535349,1.000000 
z"/>
<path fill="#54742E" opacity="1.000000" stroke="none" 
	d="
M141.000000,119.536812 
	C137.959015,119.978867 134.918045,119.957741 131.431091,119.453201 
	C130.979050,115.022980 130.972961,111.076164 130.966858,107.129356 
	C134.007751,107.086235 137.048630,107.043121 140.544769,107.000000 
	C141.000000,111.024544 141.000000,115.049088 141.000000,119.536812 
z"/>
<path fill="#54742E" opacity="1.000000" stroke="none" 
	d="
M9.464651,141.000000 
	C9.017599,138.948303 9.035198,136.896606 9.090509,134.405350 
	C11.751292,133.977402 14.400154,134.228256 16.991858,133.948898 
	C21.809971,133.429489 23.663252,135.473511 22.999870,140.563019 
	C18.643101,141.000000 14.286201,141.000000 9.464651,141.000000 
z"/>
<path fill="#54742E" opacity="1.000000" stroke="none" 
	d="
M63.464653,141.000000 
	C63.566437,138.778915 63.798485,134.831070 64.759003,134.645065 
	C68.320763,133.955338 72.169487,134.226852 75.792473,134.837280 
	C76.472618,134.951874 76.611229,138.280487 76.999870,140.562988 
	C72.643097,141.000000 68.286201,141.000000 63.464653,141.000000 
z"/>
<path fill="#214919" opacity="1.000000" stroke="none" 
	d="
M8.505267,1.000000 
	C8.990053,4.340437 8.980105,7.680874 8.944981,11.470581 
	C6.574606,11.946568 4.229409,11.973284 1.442106,12.000000 
	C1.000000,8.430345 1.000000,4.860690 1.000000,1.000000 
	C3.332827,1.000000 5.671680,1.000000 8.505267,1.000000 
z"/>
<path fill="#214919" opacity="1.000000" stroke="none" 
	d="
M49.995003,80.462021 
	C58.684612,79.994240 67.376556,79.995819 76.537918,79.995033 
	C76.993019,88.657356 76.978706,97.322037 76.481689,106.475174 
	C67.359306,106.946442 58.719635,106.929245 50.079964,106.912056 
	C50.052418,98.251831 50.024872,89.591606 49.995003,80.462021 
z"/>
<path fill="#4B652C" opacity="1.000000" stroke="none" 
	d="
M9.488174,66.016724 
	C9.017412,57.327820 9.008714,48.632450 9.000027,39.468388 
	C13.385583,39.014191 17.771128,39.028683 22.584686,39.523228 
	C23.029243,48.648037 23.045788,57.292789 23.039188,65.960045 
	C23.016045,65.982544 22.969498,66.027275 22.969498,66.027267 
	C18.629744,66.021599 14.289990,66.015930 9.488174,66.016724 
z"/>
<path fill="#4B652C" opacity="1.000000" stroke="none" 
	d="
M49.954803,65.907852 
	C49.970684,70.296448 49.986568,74.685036 50.003906,79.539490 
	C42.721115,80.002609 35.432617,79.850479 28.154362,80.057816 
	C24.298912,80.167641 22.650864,78.817322 22.962049,74.897423 
	C23.170971,72.265717 22.990248,69.603081 22.976677,66.490784 
	C22.969498,66.027275 23.016045,65.982544 23.503124,65.987198 
	C32.645069,65.963860 41.299938,65.935860 49.954803,65.907852 
z"/>
<path fill="#4B652C" opacity="1.000000" stroke="none" 
	d="
M77.463745,80.003922 
	C77.004631,75.619728 77.014603,71.234116 77.498444,66.418190 
	C86.627388,65.971146 95.282471,65.954407 103.960045,65.960815 
	C103.982544,65.983955 104.027275,66.030502 104.027275,66.030502 
	C104.015884,69.174751 103.864677,72.326393 104.030304,75.461288 
	C104.215942,78.974998 102.606331,80.100746 99.280220,80.037506 
	C92.166779,79.902267 85.048904,80.000114 77.463745,80.003922 
z"/>
<path fill="#4B652C" opacity="1.000000" stroke="none" 
	d="
M50.058098,107.383728 
	C58.719635,106.929245 67.359306,106.946442 76.459503,106.937836 
	C76.970879,122.669861 78.734436,119.660149 64.468079,119.989937 
	C61.492970,120.058716 58.493858,119.774551 55.543110,120.051056 
	C51.090797,120.468277 49.524178,118.553902 49.964558,114.300835 
	C50.184917,112.172699 50.024456,110.005127 50.058098,107.383728 
z"/>
<path fill="#4B652C" opacity="1.000000" stroke="none" 
	d="
M116.988449,38.996101 
	C116.983658,43.338978 116.993935,47.686447 117.007416,52.493935 
	C117.007080,56.993793 117.003540,61.033642 117.000000,65.536896 
	C112.983353,66.005592 108.966705,66.010880 104.488663,66.023331 
	C104.027275,66.030502 103.982544,65.983955 103.987198,65.496872 
	C103.961525,56.373257 103.931190,47.736721 103.991608,39.009148 
	C104.082367,38.918118 104.263924,38.736092 104.702682,38.807171 
	C109.098000,38.928802 113.054543,38.979351 117.011093,39.029903 
	C117.011093,39.029903 117.003517,39.000698 116.988449,38.996101 
z"/>
<path fill="#54742E" opacity="1.000000" stroke="none" 
	d="
M9.582136,120.024826 
	C9.102873,115.988335 9.077563,111.942459 9.090210,107.431190 
	C11.440875,106.977234 13.753573,106.992325 16.066296,106.999405 
	C22.334736,107.018616 25.587286,112.404396 22.580696,118.161690 
	C22.072546,119.134735 20.234423,119.790390 18.949610,119.904594 
	C15.998474,120.166946 13.009627,120.005104 9.582136,120.024826 
z"/>
<path fill="#214919" opacity="1.000000" stroke="none" 
	d="
M104.013885,119.986908 
	C100.715637,119.977997 97.397461,119.880829 94.089355,120.021225 
	C91.124580,120.147057 89.758003,118.962753 89.994751,115.955185 
	C90.085472,114.802719 90.139282,113.617409 89.977112,112.480263 
	C89.337410,107.994667 91.373970,106.505249 95.642090,106.954323 
	C98.100624,107.213005 100.607994,107.007561 103.561417,107.019630 
	C104.029442,107.028236 103.998360,106.997948 103.992447,107.448654 
	C103.980217,111.943726 103.973892,115.988083 103.967560,120.032440 
	C103.967560,120.032440 103.998344,120.002052 104.013885,119.986908 
z"/>
<path fill="#F8F8F8" opacity="1.000000" stroke="none" 
	d="
M103.900856,39.100182 
	C103.931190,47.736721 103.961525,56.373257 103.964699,65.473732 
	C95.282471,65.954407 86.627388,65.971146 77.508728,65.947845 
	C77.045151,57.135994 77.045151,48.364185 77.045151,38.975113 
	C81.239113,38.975113 85.165726,38.975113 90.012100,38.976631 
	C95.254868,39.018826 99.577866,39.059505 103.900856,39.100182 
z"/>
<path fill="#F8F8F8" opacity="1.000000" stroke="none" 
	d="
M49.974079,65.444885 
	C41.299938,65.935860 32.645069,65.963860 23.526268,65.964706 
	C23.045788,57.292789 23.029243,48.648037 23.055141,39.541252 
	C23.097584,39.079227 23.036747,39.060696 23.502853,39.038307 
	C27.976486,38.955143 31.984011,38.894367 36.451618,38.905060 
	C41.260983,39.019848 45.610260,39.063171 49.959541,39.106495 
	C49.970814,47.731632 49.982086,56.356773 49.974079,65.444885 
z"/>
<path fill="#4B652C" opacity="1.000000" stroke="none" 
	d="
M103.991608,39.009148 
	C99.577866,39.059505 95.254868,39.018826 90.473724,38.906212 
	C90.016876,34.851158 90.018173,30.868040 90.031967,26.419065 
	C94.388840,25.972389 98.733223,25.991566 103.543045,26.018677 
	C104.008484,26.026608 103.999306,25.996479 103.993591,26.455225 
	C104.079887,30.854677 104.171906,34.795383 104.263931,38.736092 
	C104.263924,38.736092 104.082367,38.918118 103.991608,39.009148 
z"/>
<path fill="#54742E" opacity="1.000000" stroke="none" 
	d="
M49.968658,38.635727 
	C45.610260,39.063171 41.260983,39.019848 36.453510,38.452553 
	C35.989391,33.961094 35.983463,29.993608 35.977535,26.026125 
	C38.960018,26.018520 41.955448,26.183428 44.921806,25.960890 
	C48.885048,25.663568 50.341248,27.393524 50.030624,31.208563 
	C49.842949,33.513515 49.984276,35.845257 49.968658,38.635727 
z"/>
<path fill="#4B652C" opacity="1.000000" stroke="none" 
	d="
M35.515575,26.018318 
	C35.983463,29.993608 35.989391,33.961094 35.993427,38.381088 
	C31.984011,38.894367 27.976486,38.955143 23.511593,39.068813 
	C23.045961,38.790321 23.028347,38.458870 23.030790,38.127563 
	C23.135777,23.884363 21.214512,26.232157 35.515575,26.018318 
z"/>
<path fill="#214919" opacity="1.000000" stroke="none" 
	d="
M104.702690,38.807171 
	C104.171906,34.795383 104.079887,30.854677 103.978989,26.451439 
	C104.301071,25.991091 104.632050,25.994497 104.963020,25.995293 
	C116.987152,26.024220 116.987152,26.024183 117.007843,38.562614 
	C113.054543,38.979351 109.098000,38.928802 104.702690,38.807171 
z"/>
<path fill="#5C8430" opacity="1.000000" stroke="none" 
	d="
M104.438644,120.022987 
	C103.973892,115.988083 103.980217,111.943726 103.977051,107.433464 
	C112.657768,106.994659 121.347977,107.021767 130.502518,107.089111 
	C130.972961,111.076164 130.979050,115.022980 130.975983,119.420212 
	C122.281128,119.918266 113.595421,119.965897 104.438644,120.022987 
z"/>
</svg>